<svg width="321" height="62" viewBox="0 0 321 62" fill="none" xmlns="http://www.w3.org/2000/svg">
<path d="M6.40331 3.257L315.207 0L320.5 61.8829L0.5 55.5725L6.40331 3.257Z" fill="#23F638"/>
<path fill-rule="evenodd" clip-rule="evenodd" d="M8.2243 5.27353L2.77323 53.5813L318.279 59.8031L313.34 2.05543L8.2243 5.27353ZM315.207 0L6.40331 3.257L0.5 55.5725L320.5 61.8829L315.207 0Z" fill="black"/>
<path fill-rule="evenodd" clip-rule="evenodd" d="M61.8636 35.4847C62.1547 35.2292 62.3033 34.9321 62.3092 34.5934C62.316 34.2026 62.1914 33.8747 61.9354 33.6096C61.706 33.319 61.3959 33.1702 61.0051 33.1634L58.6604 33.1225C58.4908 32.3898 58.2978 31.5004 58.0815 30.4542C57.4085 27.2111 56.7164 23.5636 56.0053 19.5119C55.554 17.0023 55.2121 14.9376 54.9798 13.3178C54.9565 13.161 54.8811 13.0034 54.7535 12.8448C54.6521 12.6867 54.5238 12.5671 54.3689 12.4863C54.0581 12.3766 53.8245 12.3204 53.6682 12.3177L53.5119 12.3149C53.1723 12.3611 52.896 12.5127 52.6831 12.7696C52.4706 13.0004 52.3483 13.2849 52.3164 13.6231C52.2415 14.9248 52.1301 16.0825 51.9821 17.0963L51.9835 17.0181L52.0273 16.7453C52.0004 16.7969 51.9858 16.8879 51.9835 17.0181C51.7236 18.473 51.2281 20.7315 50.4971 23.7938L50.2435 24.8839C49.348 28.4125 48.7404 31.1251 48.4206 33.0219L48.3747 33.412C48.1617 33.6689 48.0525 33.9536 48.0471 34.2663C48.0439 34.4486 48.0795 34.6447 48.1541 34.8545C48.0262 36.2074 47.9559 37.2485 47.9432 37.978C47.9112 38.3162 48.023 38.6309 48.2785 38.922C48.5345 39.1871 48.8318 39.3226 49.1705 39.3285C49.5613 39.3353 49.889 39.2237 50.1536 38.9938C50.4447 38.7383 50.6067 38.4154 50.6396 38.0251C50.6537 37.2175 50.7066 36.4235 50.7984 35.6434L56.4647 35.7423C56.4903 35.7688 56.5027 35.8081 56.5017 35.8602C56.7907 37.2203 57.2502 39.261 57.8803 41.9823C57.9535 42.2702 58.1057 42.5074 58.337 42.6939C58.5938 42.9068 58.8656 43.0158 59.1521 43.0208C59.2564 43.0226 59.3871 42.9988 59.5443 42.9495C59.8322 42.8763 60.0694 42.7241 60.2559 42.4928C60.4423 42.2615 60.5383 41.9896 60.5437 41.6769C60.5465 41.5206 60.5355 41.4032 60.5108 41.3246C59.9283 38.8648 59.5045 37.0201 59.2393 35.7907L60.9587 35.8207C61.2974 35.8266 61.599 35.7146 61.8636 35.4847ZM54.2685 24.9542C54.7683 27.6732 55.3074 30.3798 55.8858 33.074L51.9781 33.0058L51.1574 32.9915C51.5868 30.7839 52.0949 28.5516 52.6815 26.2946L53.7342 21.974L54.2685 24.9542ZM182.151 16.2412C182.206 17.5712 182.222 18.8875 182.2 20.1901C182.157 22.639 181.969 25.1896 181.636 27.8419C181.366 29.8959 181.018 31.8965 180.593 33.8436C180.393 34.8564 180.182 35.7388 179.961 36.4906C179.739 37.2425 179.453 37.9542 179.102 38.6256C178.67 39.5041 178.071 40.2364 177.305 40.8224C176.539 41.3823 175.675 41.6539 174.711 41.6371C173.955 41.6239 173.255 41.4423 172.609 41.0922C171.808 40.7394 171.102 40.1017 170.493 39.179C169.984 38.4665 169.634 37.6525 169.441 36.737C169.275 35.822 169.188 34.8042 169.182 33.6835L169.212 31.964C169.244 30.1143 169.281 28.7338 169.323 27.8225L169.572 15.8262C169.578 15.4354 169.727 15.1253 170.018 14.8958C170.309 14.6403 170.65 14.516 171.041 14.5228C171.379 14.5287 171.663 14.677 171.893 14.9676C172.149 15.2327 172.274 15.5346 172.268 15.8733C172.234 17.8272 172.195 19.2989 172.152 20.2884C172.091 23.7533 172.033 26.3583 171.976 28.1033L171.909 31.972L171.886 33.2616C171.871 34.1213 171.886 34.7731 171.93 35.2169L171.931 35.1778C171.937 35.24 171.944 35.302 171.951 35.3636L171.956 35.4007L171.963 35.4538C172.038 36.0309 172.173 36.5799 172.366 37.1008L172.746 37.7329L172.785 37.7726C172.937 38.0098 173.129 38.2217 173.36 38.4081L173.997 38.7979C174.032 38.8066 174.065 38.8113 174.096 38.8118L174.017 38.8105L174.095 38.8509L174.64 38.9777L174.796 38.9804C175.032 38.9324 175.268 38.8584 175.504 38.7582L175.661 38.6828L175.622 38.7212L175.701 38.6835L175.78 38.6067L175.701 38.6444C175.78 38.5937 175.939 38.4531 176.178 38.2228L176.226 38.1557L176.268 38.0973C176.591 37.6427 176.802 37.2848 176.902 37.0236L176.861 37.1402C176.874 37.1106 176.887 37.0808 176.9 37.051L176.921 37.0025C176.934 36.986 176.941 36.9694 176.942 36.9527C177.205 36.3312 177.425 35.6553 177.603 34.925C177.8 34.1206 177.912 33.6404 177.941 33.4846C178.307 31.8542 178.58 30.4112 178.761 29.1555L178.769 29.0959C178.781 29.0124 178.793 28.9298 178.804 28.8479L179.165 26.0788C179.355 24.1277 179.467 22.1882 179.501 20.2603C179.53 18.619 179.496 16.7943 179.401 14.786C179.382 14.4208 179.504 14.1102 179.769 13.8542C180.06 13.5987 180.389 13.4611 180.754 13.4414C181.118 13.4478 181.429 13.5835 181.685 13.8486C181.941 14.1137 182.065 14.4416 182.059 14.8324L182.151 16.2412ZM176.944 36.9246C176.943 36.929 176.943 36.9334 176.943 36.938L176.943 36.9461C176.943 36.9483 176.942 36.9505 176.942 36.9527L176.921 37.0025C176.916 37.0095 176.909 37.0166 176.902 37.0236L176.944 36.9246ZM176.984 36.8296C176.961 36.8515 176.948 36.8832 176.944 36.9246L176.984 36.8296ZM175.701 38.6444L175.701 38.6835L175.661 38.6828L175.701 38.6444ZM173.969 38.7901L173.823 38.7289C173.875 38.7559 173.924 38.7763 173.969 38.7901ZM174.562 38.9763C174.51 38.9494 174.432 38.935 174.328 38.9332L174.562 38.9763ZM220.081 15.5351C220.598 15.7787 220.851 16.1871 220.841 16.7602C220.839 16.9165 220.824 17.0335 220.796 17.1112C220.709 17.6048 220.553 18.3448 220.328 19.3312C219.847 21.4857 219.386 24.0055 218.945 26.8905L218.946 26.8123L218.54 29.9324C218.059 33.5985 217.721 37.3061 217.525 41.0553C217.518 41.4461 217.369 41.7693 217.078 42.0248C216.813 42.2547 216.486 42.3662 216.095 42.3594C215.782 42.354 215.498 42.2187 215.242 41.9536C214.986 41.6886 214.861 41.3997 214.866 41.0871C214.887 39.8627 214.998 38.0274 215.197 35.5812C215.489 32.2767 215.898 29.0133 216.423 25.791L217.078 21.8544C214.815 24.6293 212.105 27.5789 208.949 30.7032C208.71 30.9596 208.395 31.0844 208.005 31.0776C207.614 31.0708 207.29 30.9348 207.034 30.6697C206.804 30.4312 206.692 30.1295 206.698 29.7648C206.705 29.374 206.828 29.0504 207.067 28.794L209.415 26.4114C212.069 23.6693 214.661 20.7177 217.192 17.5565L216.953 17.8259L218.391 16.0529C218.579 15.7435 218.843 15.5396 219.184 15.4413C219.236 15.4161 219.341 15.4049 219.497 15.4077C219.679 15.4109 219.874 15.4533 220.081 15.5351ZM218.901 27.1633C218.928 27.1117 218.942 27.0207 218.945 26.8905L218.901 27.1633ZM253.593 25.8144C254.219 25.8253 254.82 25.6925 255.399 25.4159C255.82 25.1887 256.19 24.8825 256.509 24.4971C256.801 24.1895 257.082 23.7905 257.351 23.3C257.648 22.7059 257.774 22.1869 257.73 21.7431C257.686 21.2732 257.601 20.933 257.474 20.7223C257.271 20.406 257.002 20.1537 256.666 19.9655C256.304 19.8028 255.746 19.6888 254.992 19.6235C254.418 19.6135 253.883 19.6563 253.387 19.7518C252.838 19.8465 252.325 20.1112 251.848 20.5459C251.61 20.7763 251.436 20.9947 251.329 21.2013C251.087 21.6141 250.962 22.0289 250.955 22.4457C250.95 22.7323 251.075 23.0341 251.33 23.3513L251.639 23.5912C251.559 23.668 251.518 23.7716 251.516 23.9018C251.489 23.9795 251.473 24.1226 251.469 24.331C251.465 24.5655 251.514 24.7748 251.615 24.959C251.792 25.2487 252.062 25.4619 252.425 25.5985C252.761 25.7347 253.151 25.8067 253.593 25.8144ZM253.848 22.4571L254.358 22.3487L254.709 22.3549C254.656 22.4061 254.616 22.4575 254.589 22.5091L254.549 22.5866L254.508 22.6641L254.389 22.7793L254.349 22.8177L254.31 22.8561L254.033 23.0076C253.928 23.0579 253.85 23.0826 253.798 23.0817L253.758 23.081L253.524 23.0769C253.551 23.0252 253.606 22.8829 253.688 22.6498L253.688 22.6107L253.768 22.5339L253.848 22.4571ZM253.758 23.081L253.68 23.1187L253.641 23.118C253.667 23.0924 253.706 23.0801 253.758 23.081ZM254.044 22.3824C254.148 22.3842 254.227 22.3725 254.279 22.3474L254.044 22.3824ZM257.947 31.6757C258.856 30.3886 259.685 29.1652 260.435 28.0056C260.703 27.5933 260.878 27.2706 260.96 27.0375C261.095 26.7532 261.204 26.4945 261.286 26.2614C261.396 25.9766 261.453 25.6649 261.459 25.3263C261.462 25.1699 261.425 25.0129 261.35 24.8553C261.275 24.6715 261.186 24.5267 261.084 24.4206C260.828 24.1556 260.531 24.0201 260.192 24.0142L260.114 24.0128C259.723 24.006 259.408 24.1308 259.169 24.3872L258.93 24.6567C258.796 24.8628 258.727 25.0701 258.724 25.2785C258.668 25.486 258.613 25.6544 258.558 25.7838L258.548 25.8129L258.518 25.8613C258.52 25.8613 258.521 25.8612 258.523 25.861C258.526 25.8607 258.529 25.8598 258.532 25.8584L258.517 25.9003C258.356 26.1581 258.209 26.3901 258.075 26.5962C257.942 26.7763 257.835 26.9439 257.754 27.0988L256.59 28.7985L254.343 32.121L253.059 34.014C252.926 34.2201 252.857 34.4404 252.852 34.6749C252.846 35.0396 252.958 35.3673 253.187 35.658C253.443 35.923 253.779 36.0592 254.196 36.0665C254.691 36.0751 255.086 35.8605 255.38 35.4226C256.208 34.2904 257.064 33.0415 257.947 31.6757ZM258.558 25.7838L258.639 25.6679L258.558 25.7973C258.558 25.793 258.558 25.7885 258.558 25.7838ZM262.748 38.7957C262.754 38.457 262.721 38.1307 262.648 37.8167C262.551 37.398 262.376 37.0171 262.121 36.6739C261.892 36.3311 261.597 36.0784 261.235 35.9157L260.886 35.7533C260.765 35.256 260.445 34.9247 259.926 34.7593C259.797 34.7049 259.602 34.6754 259.341 34.6709C258.664 34.659 258.06 34.9352 257.529 35.4992C257.131 35.9092 256.796 36.4506 256.523 37.1234C255.982 38.2606 255.705 39.22 255.691 40.0016C255.682 40.5226 255.778 40.9803 255.98 41.3748C256.13 41.7422 256.359 42.0329 256.668 42.2467C256.977 42.4606 257.365 42.6498 257.831 42.8143C258.375 43.0062 258.882 43.1063 259.35 43.1145C260.314 43.1313 261.062 42.8316 261.594 42.2155C261.966 41.805 262.277 41.1719 262.526 40.3163C262.667 39.7455 262.741 39.2386 262.748 38.7957ZM260.055 38.5923L260.049 38.9049C259.992 39.2167 259.88 39.6577 259.714 40.2281L259.633 40.344L259.594 40.3433L259.594 40.3824C259.385 40.3788 259.216 40.3628 259.086 40.3345L258.425 40.1275L258.426 40.0884C258.513 39.5948 258.692 39.0116 258.965 38.3387C259.047 38.1317 259.155 37.9121 259.289 37.6799C259.415 37.9427 259.581 38.128 259.787 38.2358C259.813 38.2363 259.852 38.263 259.903 38.316C259.954 38.3691 259.98 38.4086 259.979 38.4346L260.017 38.5135L260.021 38.5222C260.027 38.5513 260.038 38.5746 260.055 38.5923ZM260.048 38.9831C260.021 39.0347 260.007 39.1127 260.005 39.2169L260.048 38.9831ZM258.342 40.0624C258.332 40.0382 258.309 40.0068 258.272 39.9684L258.309 40.0473C258.325 40.0475 258.336 40.0527 258.342 40.0624ZM258.425 40.1665L258.424 40.2056L258.386 40.1268L258.425 40.1665ZM259.398 40.4181C259.372 40.3916 259.32 40.3776 259.242 40.3763L259.398 40.4181ZM286.161 42.0188C286.155 42.3575 286.006 42.6546 285.715 42.9101C285.451 43.14 285.149 43.252 284.81 43.2461C282.881 43.2906 280.966 43.2963 279.064 43.2631L275.743 43.166C275.353 43.1332 275.029 42.9842 274.773 42.7191C274.544 42.4285 274.433 42.0877 274.439 41.697C274.445 41.3583 274.581 41.061 274.846 40.805C275.137 40.5495 275.452 40.4377 275.79 40.4697L279.306 40.5701L279.364 37.2876L279.582 24.7826L279.031 25.0075C278.82 25.1341 278.597 25.1954 278.363 25.1913C278.285 25.1639 278.155 25.1486 277.973 25.1454C277.714 25.0627 277.457 24.8498 277.202 24.5065C277.076 24.2958 277.015 24.0472 277.02 23.7606C277.022 23.6304 277.037 23.5264 277.064 23.4487C277.119 23.2933 277.2 23.1383 277.307 22.9839C277.44 22.8298 277.572 22.7279 277.703 22.6781C278.832 22.2026 280.525 21.5155 282.782 20.6168C282.992 20.4901 283.215 20.4289 283.449 20.433C283.527 20.4604 283.644 20.4754 283.801 20.4782C284.086 20.5613 284.356 20.7745 284.61 21.1177C284.711 21.3019 284.759 21.5373 284.754 21.8239C284.752 21.9802 284.736 22.0972 284.709 22.1749C284.654 22.3303 284.573 22.4853 284.466 22.6397C284.359 22.7942 284.227 22.8962 284.07 22.9455L282.298 23.6964L282.242 26.9008L282.003 40.5781C282.655 40.5895 283.606 40.58 284.857 40.5498C285.248 40.5566 285.558 40.7053 285.788 40.996C286.043 41.2871 286.168 41.6281 286.161 42.0188ZM306.55 39.7948C306.757 39.9026 306.91 40.0747 307.01 40.311C307.137 40.5217 307.198 40.7443 307.194 40.9787C307.187 41.3956 307.051 41.7189 306.786 41.9489C306.548 42.1532 306.247 42.2522 305.882 42.2458C305.595 42.2408 305.362 42.1846 305.181 42.0772L302.587 40.6638L299.682 39.1277C299.042 39.9504 298.417 40.6561 297.808 41.2449C297.225 41.808 296.565 42.2656 295.829 42.6176C294.989 42.9938 294.191 43.1753 293.435 43.1621C292.367 43.1435 291.421 42.8403 290.598 42.2526C289.825 41.718 289.212 41.0427 288.757 40.2269C288.328 39.3855 288.135 38.5222 288.177 37.6369C288.183 37.2461 288.319 36.9227 288.584 36.6667C288.849 36.4108 289.177 36.2862 289.568 36.293C289.907 36.2989 290.204 36.4474 290.459 36.7385C290.741 37.0041 290.866 37.319 290.834 37.6832L290.865 38.1529C290.924 38.3866 290.968 38.5514 290.995 38.6472L291.05 38.7424L291.037 38.7422L291.062 38.7817L291.087 38.8604L291.088 38.8213L291.34 39.2817L291.43 39.3745L291.391 39.3738C291.417 39.3743 291.43 39.3875 291.429 39.4136L291.465 39.4481L291.467 39.4533V39.4505L291.967 39.9311L292.625 40.2944C292.755 40.3488 292.949 40.4043 293.209 40.461C293.49 40.4659 293.708 40.4592 293.863 40.4408C294.063 40.3952 294.239 40.3491 294.393 40.3027C294.871 40.0832 295.276 39.8502 295.608 39.6038L295.331 39.8335C295.806 39.477 296.443 38.8366 297.241 37.9123L297.24 37.9514L297.28 37.913L297.241 37.9123C295.431 37.0468 294.074 36.4107 293.169 36.004C292.937 35.8957 292.733 35.6186 292.559 35.1725C292.533 35.1199 292.522 35.0285 292.524 34.8983C292.528 34.6638 292.598 34.4174 292.733 34.1592C292.894 33.8493 293.172 33.6457 293.564 33.5483C293.643 33.5236 293.734 33.5122 293.838 33.514C294.073 33.5181 294.319 33.5875 294.577 33.7223L297.292 34.9424L298.921 35.7135C299.936 34.298 300.809 32.8017 301.54 31.2248L301.417 31.5745C301.987 30.2293 302.347 29.0368 302.495 27.997L302.45 28.3481C302.508 28.0363 302.538 27.8154 302.54 27.6851L302.509 27.2155L302.547 27.2943C302.548 27.2162 302.536 27.1638 302.51 27.1373L302.512 27.0592L302.421 26.6667L302.364 26.5875L302.403 26.5882C302.377 26.5877 302.364 26.5745 302.364 26.5484L302.364 26.5875C302.364 26.5728 302.364 26.5591 302.363 26.5462L302.174 26.2324L302.328 26.3914L302.175 26.1933L301.866 25.9534C301.687 25.7939 301.467 25.6728 301.208 25.5901L301.402 25.6717C300.962 25.5076 300.327 25.3402 299.496 25.1693L299.885 25.2543C298.585 25.0752 297.623 24.9802 296.997 24.9693C296.45 24.9598 295.903 24.9893 295.354 25.0579L295.471 25.06C294.87 25.1537 294.19 25.3243 293.43 25.5716L293.783 25.4605C293.311 25.6607 292.903 25.8621 292.561 26.0646L292.403 26.1791L292.482 26.1023L292.284 26.2552L292.403 26.1791L292.164 26.4095C292.004 26.6152 291.883 26.8215 291.802 27.0286L291.925 26.6789C291.735 27.1186 291.596 27.5983 291.509 28.118C291.448 28.6381 291.403 28.9631 291.375 29.0929L291.459 28.7426C291.17 30.3793 291.034 32.1881 291.052 34.1689C291.045 34.5337 290.896 34.8438 290.605 35.0993C290.34 35.3553 290.025 35.4931 289.66 35.5128C289.295 35.5064 288.985 35.3707 288.729 35.1057C288.473 34.8145 288.349 34.4866 288.355 34.1219L288.38 32.676C288.396 31.7902 288.478 30.7884 288.628 29.6704C288.658 29.4885 288.704 29.0593 288.768 28.3829C288.858 27.7069 288.986 27.0837 289.152 26.5133C289.292 25.9684 289.496 25.4899 289.764 25.0776C290.084 24.6662 290.521 24.2569 291.075 23.8496C291.736 23.3399 292.563 22.9635 293.558 22.7203C294.579 22.4254 295.754 22.2895 297.083 22.3127C297.5 22.32 298.124 22.3569 298.957 22.4236C300.05 22.5469 300.985 22.7326 301.762 22.9807C302.566 23.2032 303.276 23.5935 303.892 24.1515C304.789 24.975 305.225 26.1423 305.199 27.6533C305.189 28.2265 305.085 28.9283 304.888 29.7588C304.496 31.3416 303.762 33.0357 302.689 34.8412C302.206 35.6145 301.751 36.3232 301.322 36.9672C302.717 37.6692 304.46 38.6117 306.55 39.7948ZM295.706 25.025L295.471 25.06C295.576 25.0618 295.654 25.0501 295.706 25.025ZM291.451 39.4183L291.43 39.3745L291.429 39.4136C291.433 39.4137 291.437 39.4141 291.441 39.4148C291.445 39.4156 291.448 39.4168 291.451 39.4183ZM291.451 39.4183C291.462 39.424 291.467 39.4347 291.467 39.4505L291.465 39.4481L291.451 39.4183ZM291.088 38.8213L291.062 38.7817L291.05 38.7424L291.088 38.8213ZM294.52 40.2623C294.569 40.2458 294.616 40.2293 294.66 40.2127L294.52 40.2623ZM302.363 26.5437C302.36 26.4894 302.348 26.4517 302.327 26.4305L302.363 26.5437ZM292.586 40.2938C292.564 40.271 292.533 40.2577 292.491 40.2538L292.586 40.2938ZM248.51 27.4456L248.471 27.4449L248.47 27.484C248.717 28.2701 248.832 29.1321 248.816 30.07C248.8 30.9818 248.68 31.8918 248.455 32.8C248.231 33.7082 247.913 34.758 247.501 35.9496C246.792 37.7875 245.971 39.2325 245.041 40.2847C244.51 40.8748 243.888 41.3852 243.177 41.8158C242.492 42.2208 241.771 42.4949 241.013 42.638C240.438 42.7322 240.007 42.7768 239.72 42.7718C239.408 42.7664 238.966 42.7065 238.395 42.5923C237.694 42.4237 237.179 42.0759 236.849 41.549C236.62 41.2323 236.512 40.7222 236.524 40.0188L236.616 34.7433L236.65 32.7894C236.673 31.4868 236.716 30.5103 236.78 29.8599C236.971 27.8306 237.468 26.2626 238.269 25.156C238.803 24.4356 239.451 23.8606 240.214 23.4309C240.978 22.9752 241.777 22.7546 242.61 22.7691C242.819 22.7728 243.052 22.829 243.311 22.9377C243.831 22.9989 244.208 23.0706 244.441 23.1529C245.478 23.4576 246.431 24.1258 247.299 25.1573C247.377 25.1326 247.482 25.1214 247.612 25.1236C247.977 25.13 248.287 25.2657 248.543 25.5308C248.825 25.7703 248.963 26.0854 248.956 26.4762C248.949 26.893 248.8 27.2161 248.51 27.4456ZM242.33 25.4614C242.408 25.4627 242.473 25.4508 242.525 25.4257L242.486 25.4251L242.329 25.4614L242.29 25.4607L241.74 25.6075C241.634 25.6838 241.477 25.7723 241.266 25.8729L241.306 25.8345L241.187 25.9106L241.029 26.0251L241.108 25.9874L240.631 26.4481C240.524 26.6026 240.323 26.9248 240.028 27.4148C240.048 27.3951 240.065 27.3772 240.077 27.3612C239.797 27.941 239.613 28.6074 239.525 29.3605L239.526 29.2824C239.435 29.9844 239.385 30.6611 239.373 31.3124L239.341 33.1491C241.152 30.9135 243.091 28.8104 245.158 26.8399C245.082 26.7343 244.929 26.5622 244.698 26.3237C244.57 26.2172 244.415 26.1233 244.234 26.0419C244.054 25.9345 243.925 25.8541 243.848 25.8006C243.692 25.7458 243.459 25.6896 243.147 25.6321L243.498 25.6773L243.186 25.6327C243.03 25.63 242.822 25.5743 242.563 25.4655L242.33 25.4614ZM240.108 27.299C240.098 27.3196 240.087 27.3403 240.077 27.3612C240.097 27.3357 240.108 27.315 240.108 27.299ZM241.108 25.9874L241.187 25.9106L241.266 25.8729L241.108 25.9874ZM246.017 31.3893C246.034 31.2726 246.049 31.1577 246.062 31.0446L246.017 31.3893ZM245.389 33.8019C245.719 32.7665 245.944 31.8461 246.062 31.041C246.118 30.5507 246.139 30.0941 246.125 29.6712C244.269 31.5151 242.608 33.3364 241.144 35.135L241.383 34.8656C240.237 36.331 239.53 37.2698 239.262 37.6821L239.252 38.2683L239.231 39.4406C239.203 39.5704 239.187 39.7656 239.182 40.0261C239.39 40.0819 239.519 40.1102 239.571 40.1111L239.221 40.0268C239.351 40.0551 239.546 40.0716 239.807 40.0761C239.99 40.0793 240.142 40.074 240.262 40.0601C240.532 39.9963 240.825 39.9182 241.14 39.8258C241.455 39.6749 241.797 39.4984 242.166 39.2964L242.183 39.2804C242.193 39.271 242.203 39.262 242.213 39.2534L242.205 39.258L242.216 39.2512C242.262 39.2132 242.307 39.1839 242.353 39.1633L242.405 39.1301C242.404 39.132 242.404 39.134 242.403 39.1361C242.403 39.1387 242.403 39.1413 242.403 39.1442C242.641 38.9399 242.973 38.5808 243.399 38.067L243.358 38.1445C243.812 37.527 244.229 36.7785 244.609 35.8991L244.527 36.1322C244.799 35.4855 245.086 34.7087 245.389 33.8019ZM242.443 39.1058C242.422 39.1054 242.409 39.1135 242.405 39.1301L242.443 39.1058ZM234.351 27.1985L234.39 27.1992C234.68 26.9697 234.829 26.6465 234.837 26.2297C234.843 25.8389 234.706 25.5238 234.423 25.2843C234.167 25.0193 233.857 24.8835 233.492 24.8772C233.362 24.8749 233.257 24.8861 233.179 24.9108C232.311 23.8793 231.358 23.2112 230.321 22.9064C230.088 22.8242 229.711 22.7524 229.191 22.6913C228.932 22.5825 228.699 22.5263 228.49 22.5227C227.657 22.5081 226.858 22.7287 226.094 23.1845C225.331 23.6142 224.683 24.1892 224.149 24.9095C223.348 26.0161 222.851 27.5841 222.66 29.6134C222.596 30.2638 222.553 31.2403 222.53 32.5429L222.496 34.4968L222.404 39.7723C222.392 40.4757 222.5 40.9858 222.729 41.3025C223.059 41.8295 223.574 42.1773 224.275 42.3458C224.846 42.4601 225.288 42.5199 225.6 42.5253C225.887 42.5303 226.318 42.4857 226.893 42.3915C227.651 42.2484 228.372 41.9743 229.057 41.5693C229.768 41.1387 230.39 40.6284 230.921 40.0383C231.852 38.9861 232.672 37.541 233.381 35.7031C233.793 34.5116 234.111 33.4617 234.335 32.5535C234.56 31.6453 234.68 30.7353 234.696 29.8235C234.712 28.8856 234.597 28.0237 234.35 27.2375L234.351 27.1985ZM228.405 25.1793C228.353 25.2043 228.288 25.2162 228.21 25.215L228.443 25.219C228.702 25.3278 228.91 25.3835 229.066 25.3863L229.378 25.4308L229.027 25.3856C229.339 25.4431 229.572 25.4993 229.728 25.5542C229.805 25.6076 229.934 25.6881 230.114 25.7955C230.295 25.8768 230.45 25.9707 230.578 26.0772C230.809 26.3158 230.962 26.4878 231.038 26.5934C228.971 28.5639 227.032 30.667 225.221 32.9026L225.253 31.0659C225.265 30.4146 225.316 29.738 225.406 29.0359L225.405 29.1141C225.493 28.361 225.677 27.6945 225.957 27.1147C225.977 27.0892 225.988 27.0685 225.988 27.0525C225.978 27.0731 225.967 27.0939 225.957 27.1147C225.945 27.1307 225.928 27.1486 225.908 27.1684C226.203 26.6784 226.404 26.3561 226.511 26.2016L226.988 25.7409L227.146 25.6264C227.357 25.5258 227.514 25.4374 227.62 25.361L228.17 25.2143L228.209 25.2149L228.366 25.1786L228.405 25.1793ZM227.067 25.6641L227.186 25.588L227.146 25.6264L227.067 25.6641ZM227.067 25.6641L226.909 25.7786L226.988 25.7409L227.067 25.6641ZM231.897 31.1428C231.914 31.0261 231.929 30.9112 231.942 30.7981L231.897 31.1428ZM231.942 30.7946C231.824 31.5997 231.599 32.52 231.269 33.5554C230.966 34.4622 230.679 35.239 230.407 35.8858L230.489 35.6527C230.109 36.5321 229.692 37.2805 229.238 37.8981L229.279 37.8206C228.853 38.3343 228.521 38.6934 228.283 38.8977L228.283 38.8923C228.283 38.8892 228.284 38.8863 228.285 38.8837L228.323 38.8593C228.302 38.859 228.289 38.8671 228.285 38.8837L228.233 38.9168C228.187 38.9375 228.142 38.9667 228.096 39.0047L228.085 39.0115L228.093 39.007C228.077 39.0202 228.062 39.0346 228.046 39.0499C227.677 39.252 227.335 39.4284 227.02 39.5793C226.705 39.6717 226.412 39.7499 226.142 39.8136C226.022 39.8275 225.87 39.8328 225.687 39.8296C225.426 39.8251 225.231 39.8087 225.101 39.7803L225.451 39.8646C225.399 39.8637 225.27 39.8354 225.062 39.7796C225.067 39.5191 225.083 39.324 225.111 39.1942L225.132 38.0218L225.142 37.4357C225.41 37.0234 226.117 36.0845 227.263 34.6191L227.024 34.8886C228.488 33.0899 230.149 31.2687 232.005 29.4247C232.019 29.8477 231.998 30.3043 231.942 30.7946ZM193.449 38.4851C194.382 37.3027 194.861 35.995 194.886 34.5621C194.921 32.5301 194.082 30.5609 192.37 28.6547C191.987 28.205 191.386 27.5561 190.566 26.7078C189.49 25.6467 188.723 24.8124 188.265 24.205L188.494 24.4826L188.266 24.1268L188.267 24.0878L188.426 23.9342L188.465 23.9349C188.57 23.8847 188.661 23.8603 188.739 23.8615L188.74 23.8615L188.779 23.8622C188.805 23.8369 188.844 23.8246 188.895 23.8251C188.844 23.8246 188.818 23.8372 188.818 23.8629C189.052 23.8669 189.222 23.8829 189.325 23.9108L189.364 23.9115C189.442 23.9389 189.559 23.954 189.715 23.9567C189.924 23.9603 190.159 23.8993 190.422 23.7736C190.58 23.6982 190.712 23.5962 190.818 23.4678C190.925 23.3133 190.993 23.1581 191.022 23.0023C191.049 22.9246 191.065 22.8075 191.067 22.6512C191.073 22.3386 190.987 22.0504 190.809 21.7867C190.631 21.523 190.399 21.3626 190.113 21.3055C189.776 21.2215 189.399 21.1758 188.982 21.1685C188.201 21.1549 187.533 21.3256 186.98 21.6808C186.532 21.9597 186.174 22.3182 185.906 22.7566C185.663 23.1954 185.538 23.6492 185.53 24.1182C185.528 24.2484 185.55 24.4443 185.598 24.7057C185.694 25.1504 185.985 25.6637 186.47 26.2454C187.006 26.8802 187.287 27.2109 187.313 27.2374L189.08 29.0273C189.928 29.9056 190.532 30.5939 190.892 31.0924L190.886 31.0917L190.881 31.0914C191.315 31.6202 191.669 32.2257 191.944 32.9081L191.868 32.7895C191.868 32.7634 191.843 32.6979 191.793 32.5927L191.868 32.7895C191.993 33.0783 192.102 33.5363 192.195 34.1634L192.197 34.0852C192.221 34.1638 192.232 34.2943 192.229 34.4767C192.226 34.659 192.21 34.8021 192.182 34.9058L192.184 34.8277C192.152 35.1399 192.027 35.5807 191.809 36.1502L191.932 35.8005C191.742 36.2402 191.527 36.6144 191.287 36.9229L191.367 36.807C191.129 37.1203 190.831 37.4324 190.472 37.7436C190.389 37.8156 190.303 37.8876 190.214 37.9596L190.333 37.8444C189.981 38.1162 189.609 38.3259 189.218 38.4735L189.121 38.508C188.81 38.6107 188.493 38.6896 188.167 38.7448C188.089 38.7434 188.024 38.7553 187.971 38.7804L187.932 38.7797L187.502 38.7722C187.45 38.7583 187.402 38.7444 187.356 38.7306C187.22 38.6891 187.114 38.6482 187.036 38.6077L186.726 38.446L186.573 38.2869L186.535 38.2081L186.497 38.1293C186.499 38.0511 186.487 37.9857 186.462 37.9332C186.414 37.6717 186.249 37.4474 185.965 37.26C185.708 37.047 185.437 36.938 185.15 36.933C185.02 36.9308 184.915 36.942 184.837 36.9667C184.522 37.0654 184.272 37.2304 184.085 37.4617C183.925 37.6935 183.842 37.9526 183.837 38.2392C183.834 38.4215 183.845 38.552 183.869 38.6306C183.965 39.1014 184.179 39.5612 184.51 40.01C184.841 40.4327 185.24 40.7524 185.705 40.969C186.273 41.2656 186.935 41.4204 187.69 41.4336C188.159 41.4418 188.655 41.3853 189.179 41.2642C190.853 40.9025 192.276 39.9761 193.449 38.4851ZM188.167 38.7448L188.285 38.7468C188.18 38.745 188.102 38.7566 188.049 38.7818C188.076 38.7562 188.115 38.7438 188.167 38.7448ZM189.158 38.4955C189.129 38.506 189.1 38.5162 189.07 38.526L189.121 38.508L189.158 38.4955ZM189.158 38.4955C189.234 38.4699 189.31 38.4427 189.385 38.4142L189.218 38.4735C189.198 38.481 189.178 38.4884 189.158 38.4955ZM188.465 23.9349L188.544 23.8581L188.584 23.8588L188.465 23.9349ZM188.226 24.1652L188.226 24.2043L188.185 24.2818L188.226 24.1652ZM166.688 40.8325C166.979 40.577 167.127 40.2799 167.133 39.9412C167.14 39.5504 167.016 39.2095 166.76 38.9183C166.531 38.6277 166.221 38.4789 165.83 38.4721C164.578 38.5024 163.627 38.5118 162.976 38.5005L163.214 24.8232L163.27 21.6188L165.043 20.8679C165.2 20.8185 165.332 20.7166 165.439 20.5621C165.546 20.4076 165.627 20.2527 165.681 20.0973C165.709 20.0196 165.724 19.9026 165.727 19.7462C165.732 19.4597 165.684 19.2243 165.583 19.0401C165.328 18.6969 165.058 18.4837 164.773 18.4005C164.617 18.3978 164.5 18.3827 164.422 18.3553C164.187 18.3512 163.965 18.4125 163.754 18.5391C161.497 19.4379 159.804 20.125 158.676 20.6004C158.544 20.6502 158.412 20.7522 158.279 20.9062C158.172 21.0607 158.091 21.2157 158.037 21.3711C158.009 21.4488 157.994 21.5527 157.992 21.683C157.987 21.9696 158.048 22.2182 158.175 22.4289C158.429 22.7721 158.686 22.9851 158.945 23.0678C159.128 23.071 159.258 23.0863 159.335 23.1137C159.57 23.1178 159.792 23.0565 160.003 22.9299L160.554 22.705L160.336 35.2099L160.279 38.4925L156.762 38.392C156.424 38.3601 156.109 38.4718 155.818 38.7274C155.553 38.9833 155.418 39.2807 155.412 39.6193C155.405 40.0101 155.516 40.3508 155.746 40.6415C156.002 40.9066 156.325 41.0555 156.715 41.0884L160.036 41.1855C161.938 41.2187 163.853 41.213 165.783 41.1685C166.121 41.1744 166.423 41.0624 166.688 40.8325ZM153.655 18.2847C153.756 18.4949 153.804 18.7042 153.801 18.9126C153.798 19.095 153.782 19.2381 153.754 19.3418C153.378 21.4982 153.104 22.9919 152.933 23.8228L152.76 24.797C152.616 25.5763 152.443 26.5506 152.24 27.7197C152.037 28.8889 151.779 30.2525 151.465 31.8106L150.036 39.76C150.005 40.0201 149.832 40.2516 149.516 40.4546C149.304 40.6333 149.029 40.7197 148.69 40.7138C148.169 40.7047 147.795 40.4767 147.569 40.0297C146.658 38.4502 146.001 37.253 145.599 36.4381C144.566 34.4135 143.613 32.2729 142.74 30.0166L142.548 40.9975C142.542 41.3622 142.406 41.6726 142.141 41.9285C141.876 42.1845 141.561 42.3093 141.196 42.3029C140.831 42.3226 140.508 42.1867 140.226 41.8951C139.97 41.63 139.845 41.3151 139.852 40.9504L139.924 36.8081C140.037 30.3472 140.135 25.5018 140.217 22.2718C140.223 21.9331 140.332 21.6484 140.545 21.4175C140.783 21.1872 141.072 21.0489 141.412 21.0027C141.751 20.9565 142.05 21.0269 142.307 21.2138C142.591 21.4011 142.782 21.652 142.88 21.9665C143.666 24.7426 144.533 27.3246 145.482 29.7126L145.37 29.3979C145.544 29.8701 145.831 30.5787 146.232 31.5238C146.682 32.5741 147.298 33.8618 148.08 35.3869C148.136 35.1533 148.193 34.8547 148.252 34.4908C148.651 32.4912 149.141 29.8286 149.72 26.503L151.188 18.5543C151.217 18.3985 151.284 18.2563 151.391 18.1279C151.524 17.9738 151.669 17.8591 151.827 17.7837C152.038 17.657 152.26 17.5958 152.495 17.5999C152.651 17.6026 152.768 17.6177 152.846 17.6451C153.001 17.6739 153.156 17.7548 153.31 17.8877C153.464 18.0207 153.579 18.153 153.655 18.2847ZM137.864 31.925C137.764 31.6887 137.611 31.5167 137.404 31.4088C137.223 31.3014 137.003 31.2455 136.742 31.2409C136.247 31.2323 135.853 31.4469 135.558 31.8848C134.725 33.3557 133.962 34.5281 133.269 35.402L133.508 35.1326C132.895 35.9037 132.259 36.531 131.599 37.0146L131.837 36.8233C131.335 37.2103 130.788 37.5261 130.196 37.7706C129.704 37.9293 129.254 38.0391 128.844 38.1002L128.296 38.1297L127.75 38.0811C127.49 38.0244 127.269 37.9684 127.088 37.9131C126.675 37.6975 126.378 37.5099 126.199 37.3504L125.776 36.913C125.573 36.5967 125.447 36.36 125.398 36.2028L125.434 36.3598L125.374 36.2024L125.359 36.163L125.25 35.692C125.227 35.5353 125.218 35.3136 125.223 35.027C125.279 34.8195 125.334 34.6641 125.387 34.5608L125.428 34.4833C125.562 34.2512 125.789 33.9294 126.109 33.518L125.99 33.6332C126.523 32.9649 127.348 31.963 128.466 30.6274C129.099 30.1954 129.553 29.5909 129.827 28.8139C129.882 28.6585 129.91 28.5417 129.911 28.4636C129.915 28.2291 129.854 28.0065 129.727 27.7958C129.601 27.5851 129.434 27.4129 129.228 27.279C129.099 27.1985 128.879 27.1295 128.567 27.072C128.411 27.0692 128.241 27.1054 128.057 27.1803C127.873 27.2553 127.729 27.344 127.622 27.4464L126.744 28.4865C126.351 28.636 125.958 28.7464 125.566 28.8177C125.462 28.8159 125.383 28.8276 125.331 28.8527C125.122 28.8751 124.796 28.8825 124.353 28.8747C124.04 28.8693 123.806 28.8522 123.65 28.8234L123.495 28.7816L123.34 28.7007L123.301 28.6609C123.275 28.6605 123.263 28.6472 123.263 28.6212L123.224 28.6205L123.225 28.5814L123.217 28.5538L123.041 27.9137L123.01 27.444L123.057 26.9758L123.056 27.0539C123.204 26.0141 123.536 24.8994 124.052 23.7096L123.93 24.02C124.243 23.2266 124.713 22.4 125.338 21.5403C125.829 20.9945 126.281 20.5473 126.694 20.1985L126.852 20.084C127.51 19.7046 127.892 19.4898 127.997 19.4395L127.957 19.4779C128.036 19.4271 128.154 19.3771 128.311 19.3277C128.678 19.2038 128.956 19.0002 129.143 18.7168C129.25 18.5362 129.306 18.3157 129.311 18.0552C129.314 17.8989 129.303 17.7814 129.278 17.7028C129.205 17.4149 129.04 17.1774 128.782 16.9905C128.551 16.778 128.293 16.6693 128.006 16.6643C127.85 16.6615 127.732 16.6725 127.654 16.6972C126.028 17.2682 124.657 18.2085 123.539 19.518C122.473 20.8545 121.653 22.3387 121.077 23.9704C120.612 25.2392 120.37 26.4077 120.351 27.4758C120.344 27.8927 120.376 28.3232 120.446 28.7674C120.688 29.8141 121.209 30.5789 122.009 31.0619C122.576 31.3846 123.316 31.5538 124.228 31.5697C123.909 31.903 123.63 32.2499 123.389 32.6105C122.827 33.4346 122.538 34.3026 122.522 35.2144C122.504 36.2826 122.786 37.2647 123.37 38.161C123.929 39.0046 124.608 39.6419 125.408 40.0729C126.234 40.5564 127.22 40.8081 128.366 40.8281C129.357 40.8193 130.324 40.6147 131.27 40.2143C132.241 39.8143 133.136 39.2566 133.957 38.5412C134.698 37.9026 135.362 37.1715 135.95 36.3479C136.537 35.5242 137.181 34.493 137.88 33.2544C137.987 33.0738 138.043 32.8533 138.048 32.5928C138.052 32.3583 137.991 32.1357 137.864 31.925ZM126.813 20.0833L126.892 20.0456L126.852 20.084L126.813 20.0833ZM126.813 20.0833L126.615 20.2362L126.694 20.1985L126.813 20.0833ZM125.566 28.8177L125.683 28.8198L125.37 28.8534L125.566 28.8177ZM125.387 34.5608L125.267 34.7542C125.319 34.6545 125.36 34.5816 125.389 34.5354C125.388 34.543 125.388 34.5515 125.387 34.5608ZM125.18 35.2217C125.207 35.1701 125.222 35.1052 125.223 35.027L125.18 35.2217ZM123.262 28.6602C123.288 28.6607 123.301 28.6739 123.301 28.7L123.262 28.6993L123.262 28.6602ZM123.962 28.907C123.91 28.88 123.832 28.8656 123.728 28.8638L123.962 28.907ZM125.177 35.4171C125.176 35.4692 125.188 35.5085 125.214 35.535L125.177 35.4171ZM118.166 19.2679C118.448 19.5073 118.586 19.8225 118.579 20.2133C118.573 20.604 118.424 20.9142 118.133 21.1436C116.346 22.7675 114.816 24.3959 113.542 26.0287C113.545 26.0282 113.549 26.028 113.553 26.0281L112.953 26.7994C113.214 26.7519 113.436 26.7297 113.618 26.7329C114.166 26.7164 114.659 26.8553 115.097 27.1496C115.535 27.4178 115.815 27.8006 115.937 28.2978C115.986 28.429 116.009 28.6379 116.004 28.9244C115.997 29.2892 115.912 29.6916 115.748 30.1318C115.611 30.5463 115.528 30.8055 115.5 30.9092C114.487 33.7321 113.074 36.2874 111.262 38.5751C111.182 38.6779 111.062 38.8452 110.901 39.0769C110.741 39.2826 110.582 39.4492 110.423 39.5768C110.106 39.8318 109.803 40.009 109.515 40.1082C109.254 40.1557 109.071 40.1786 108.967 40.1768L108.381 40.1275C108.122 40.0708 107.733 39.9077 107.217 39.6381C106.933 39.4767 106.688 39.3161 106.483 39.1562C105.891 38.7028 105.341 38.1199 104.832 37.4074C104.477 36.8539 104.162 36.223 103.888 35.5146C103.464 34.4387 103.265 33.1453 103.291 31.6343C103.317 30.1754 103.545 28.303 103.976 26.0173C104.629 22.9276 105.554 19.9729 106.749 17.1532C106.939 16.7656 107.152 16.5087 107.388 16.3826C107.599 16.2559 107.835 16.1949 108.095 16.1994C108.33 16.2035 108.55 16.2725 108.756 16.4064C108.962 16.5403 109.116 16.6994 109.217 16.8835C109.343 17.0942 109.404 17.3298 109.4 17.5904C109.399 17.6685 109.37 17.7853 109.316 17.9407C108.962 18.7945 108.649 19.5839 108.375 20.3088C107.333 23.2875 106.605 26.1804 106.191 28.9877L106.236 28.6367C106.058 29.8844 105.964 30.821 105.953 31.4462C105.947 31.7588 105.966 32.2022 106.008 32.7762C106.007 32.8388 106.01 32.8873 106.019 32.9218L106.006 32.8935C106.031 32.946 106.042 33.0244 106.041 33.1286L106.042 33.0504C106.11 33.651 106.281 34.2925 106.556 34.9748L106.48 34.8171C106.605 35.132 106.807 35.5134 107.086 35.9613L107.276 36.2383L107.201 36.0806C107.481 36.4503 107.788 36.7684 108.122 37.0348L108.045 36.9944C108.199 37.1013 108.432 37.2357 108.741 37.3974L108.742 37.3975L108.901 37.2439L108.981 37.128L108.94 37.2055L108.995 37.1267C108.991 37.1277 108.986 37.1281 108.981 37.128L109.021 37.0896C110.432 35.3422 111.546 33.5114 112.361 31.5971L112.32 31.6746L112.852 30.3158L113.14 29.4999C112.826 29.5986 112.59 29.6857 112.432 29.7612C111.591 30.1374 110.683 30.6948 109.706 31.4335C109.574 31.5355 109.351 31.5837 109.039 31.5782C108.856 31.5751 108.739 31.56 108.688 31.533C108.454 31.4508 108.261 31.3301 108.107 31.1711C107.851 30.9321 107.726 30.6172 107.733 30.2264C107.738 29.9398 107.794 29.7063 107.902 29.5257C108.224 28.9841 108.733 28.1721 109.43 27.0897C111.542 23.9994 113.829 21.3812 116.29 19.2351C116.555 18.9792 116.87 18.8544 117.235 18.8607C117.6 18.8671 117.91 19.0028 118.166 19.2679ZM112.32 31.6746L112.199 31.907L112.2 31.8289C112.227 31.7772 112.267 31.7258 112.32 31.6746ZM106.043 32.9723L106.019 32.9218C106.025 32.9449 106.033 32.9617 106.043 32.9723ZM91.7873 17.8302C91.7909 17.6218 91.7425 17.4124 91.6419 17.2022C91.566 17.0706 91.451 16.9383 91.297 16.8053C91.143 16.6723 90.988 16.5914 90.8322 16.5626C90.7545 16.5352 90.6375 16.5202 90.4811 16.5174C90.2467 16.5133 90.0241 16.5746 89.8134 16.7012C89.6557 16.7766 89.5104 16.8914 89.3774 17.0454C89.2709 17.1739 89.2033 17.316 89.1745 17.4719L87.7067 25.4206C87.1275 28.7462 86.638 31.4088 86.2382 33.4084C86.1798 33.7722 86.1224 34.0709 86.0662 34.3045C85.285 32.7793 84.669 31.4917 84.2182 30.4414C83.8178 29.4962 83.5305 28.7876 83.3563 28.3155L83.4681 28.6302C82.5195 26.2421 81.6524 23.6601 80.867 20.884C80.7682 20.5696 80.5772 20.3187 80.2938 20.1313C80.0364 19.9444 79.738 19.8741 79.3984 19.9202C79.0588 19.9664 78.7697 20.1047 78.5312 20.3351C78.3187 20.5659 78.2094 20.8507 78.2035 21.1894C78.1211 24.4194 78.0235 29.2648 77.9107 35.7257L77.8384 39.868C77.832 40.2327 77.9568 40.5476 78.2128 40.8127C78.4944 41.1042 78.8178 41.2402 79.1829 41.2205C79.5477 41.2269 79.8626 41.1021 80.1276 40.8461C80.3927 40.5901 80.5284 40.2798 80.5348 39.915L80.7265 28.9341C81.5992 31.1905 82.5521 33.331 83.5852 35.3557C83.9879 36.1706 84.6446 37.3677 85.5552 38.9472C85.7819 39.3942 86.1558 39.6222 86.6769 39.6313C87.0155 39.6373 87.2907 39.5508 87.5023 39.3721C87.8185 39.1692 87.992 38.9377 88.0226 38.6776L89.4513 30.7282C89.7652 29.1701 90.0235 27.8064 90.2263 26.6373C90.4291 25.4681 90.6025 24.4939 90.7464 23.7146L90.9198 22.7404C91.0906 21.9094 91.3643 20.4158 91.7407 18.2594C91.7686 18.1556 91.7841 18.0126 91.7873 17.8302ZM75.9257 38.3492C75.9198 38.6878 75.7713 38.9849 75.4801 39.2405C75.2155 39.4704 74.9139 39.5824 74.5752 39.5765C72.646 39.621 70.7305 39.6266 68.8287 39.5934L65.5077 39.4964C65.1174 39.4635 64.7943 39.3145 64.5383 39.0495C64.3088 38.7588 64.1975 38.4181 64.2043 38.0273C64.2102 37.6886 64.3457 37.3913 64.6108 37.1353C64.9019 36.8798 65.2166 36.768 65.5548 36.8L69.0712 36.9005L69.1285 33.6179L69.3467 21.1129L68.7955 21.3379C68.5849 21.4645 68.3623 21.5257 68.1278 21.5217C68.0501 21.4942 67.9201 21.4789 67.7377 21.4758C67.4785 21.3931 67.2217 21.1801 66.9671 20.8369C66.8404 20.6262 66.7796 20.3775 66.7846 20.091C66.7869 19.9607 66.8018 19.8567 66.8292 19.779C66.884 19.6236 66.9649 19.4687 67.0718 19.3142C67.2048 19.1601 67.3369 19.0582 67.4681 19.0084C68.5969 18.533 70.2898 17.8459 72.5466 16.9471C72.7573 16.8205 72.9799 16.7592 73.2144 16.7633C73.2921 16.7907 73.4091 16.8058 73.5654 16.8085C73.8506 16.8917 74.1205 17.1049 74.3751 17.4481C74.4761 17.6323 74.5242 17.8676 74.5191 18.1542C74.5164 18.3105 74.5014 18.4275 74.4739 18.5052C74.4191 18.6606 74.3382 18.8156 74.2313 18.9701C74.1243 19.1246 73.9923 19.2265 73.835 19.2759L72.0629 20.0267L72.007 23.2311L71.7682 36.9084C72.4195 36.9198 73.3709 36.9104 74.6223 36.8801C75.0131 36.8869 75.3232 37.0357 75.5526 37.3263C75.8082 37.6174 75.9325 37.9584 75.9257 38.3492ZM45.5705 39.2265C45.8265 39.4916 45.951 39.8195 45.9442 40.2103C45.9379 40.575 45.8021 40.8854 45.5371 41.1414C45.2981 41.3978 44.9832 41.5226 44.5924 41.5158C44.2016 41.509 43.8782 41.373 43.6222 41.108C42.9837 40.3671 42.216 39.5589 41.3192 38.6833C38.6674 35.9637 35.7938 33.3695 32.6982 30.9007C32.6984 30.9024 32.6986 30.9042 32.6987 30.906C32.6987 30.9074 32.6987 30.9088 32.6987 30.9103L32.1982 30.4715C31.9916 30.3637 31.825 30.2044 31.6984 29.9937C31.6481 29.8886 31.5987 29.7314 31.5502 29.5221L31.4824 37.8861C31.4756 38.2769 31.3266 38.6001 31.0355 38.8556C30.7449 39.085 30.4041 39.1964 30.0134 39.1895C29.6747 39.1836 29.3774 39.0481 29.1214 38.7831C28.8919 38.4924 28.7801 38.1777 28.786 37.8391L28.8607 29.0842L28.9573 21.307L28.9524 19.3524C29.0158 18.702 29.2197 18.2235 29.5638 17.9168C29.9353 17.5324 30.4858 17.3465 31.2153 17.3593C32.3616 17.3793 33.5013 17.777 34.6344 18.5525C35.7931 19.3546 36.6908 20.1781 37.3275 21.0231C37.6068 21.445 37.858 21.9836 38.0811 22.639C38.1785 23.0316 38.2234 23.4493 38.2156 23.8922C38.2024 24.6477 38.0199 25.4003 37.668 26.1498C37.3422 26.8999 36.9006 27.5697 36.343 28.1594C35.9705 28.5959 35.7814 28.9835 35.7754 29.3222C35.7686 29.713 36.0219 30.1343 36.5352 30.5863C39.5661 33.1149 42.5779 35.995 45.5705 39.2265ZM31.1689 20.0166C31.195 20.017 31.2082 20.0042 31.2087 19.9782L31.1689 20.0166ZM34.6604 26.0192C34.9003 25.7106 35.1153 25.3365 35.3054 24.8968L35.1821 25.2465C35.3452 24.8584 35.4421 24.5344 35.4727 24.2743C35.5014 24.1184 35.5181 23.9103 35.5227 23.6497C35.4742 23.4404 35.425 23.2702 35.3752 23.139C35.2765 22.8245 35.1249 22.5483 34.9206 22.3102C34.6143 21.94 34.3197 21.6482 34.0368 21.4348L34.1143 21.4752C33.3688 20.8889 32.7113 20.4865 32.1418 20.2681L32.4914 20.3914C32.3621 20.3371 32.0771 20.2409 31.6365 20.1029L31.6338 20.2592C31.6557 20.4941 31.6628 20.833 31.6551 21.2759L31.6196 23.308L31.5571 29.1313C31.5858 28.9754 31.6409 28.807 31.7222 28.626C31.8561 28.4199 32.0282 28.2665 32.2384 28.1659L32.8328 27.7072L32.5552 27.9369C32.9514 27.6311 33.3479 27.3123 33.7446 26.9804C34.1417 26.6225 34.4737 26.2635 34.7406 25.9033L34.6604 26.0192ZM26.8146 29.8694C26.8178 29.687 26.7965 29.413 26.7508 29.0474C26.5834 28.1845 26.0635 27.3676 25.1909 26.5966C24.4458 25.9842 23.6199 25.5268 22.7131 25.2243C21.8067 24.8957 20.8585 24.7228 19.8686 24.7055L19.8295 24.7049C20.2298 24.1646 20.5527 23.5839 20.798 22.9627C21.1252 22.1345 21.2961 21.3036 21.3106 20.4699C21.3161 20.1573 21.2722 19.6874 21.1789 19.0604C20.9658 17.8318 20.3331 16.7523 19.2809 15.8219C18.3818 15.0765 17.1555 14.4166 15.6019 13.8423C15.4465 13.7874 15.3297 13.7593 15.2516 13.758C15.0432 13.7543 14.8732 13.7904 14.7415 13.8663C14.4527 13.9916 14.2281 14.1701 14.0677 14.4018C13.4772 15.3818 13.0941 16.4305 12.9182 17.548C12.7424 18.6656 12.6405 20.0189 12.6128 21.6081L12.5923 22.7804L12.4711 31.9644L12.3811 37.1227C12.3747 37.4874 12.4993 37.8154 12.7548 38.1065C13.0368 38.372 13.3474 38.4947 13.6866 38.4746C14.1303 38.4302 14.485 38.267 14.7505 37.985C14.958 38.0407 15.1139 38.0695 15.2181 38.0713C15.2963 38.0727 15.4139 38.0487 15.5712 37.9993C17.381 37.3273 19.2206 36.4473 21.0898 35.3593L21.8007 34.9417L23.6181 33.8399C23.6972 33.7891 23.9869 33.6118 24.4874 33.3078C25.0139 33.0042 25.4501 32.647 25.7961 32.2361C26.1941 31.8261 26.4893 31.3361 26.6817 30.7661C26.7653 30.4549 26.8096 30.156 26.8146 29.8694ZM15.9018 16.8183C16.5216 17.1419 16.9729 17.4103 17.2559 17.6238C17.3327 17.7033 17.3841 17.7433 17.4101 17.7437C17.4439 17.7787 17.4722 17.8022 17.495 17.8143C17.664 17.9593 17.8179 18.1187 17.9569 18.2926M18.0245 18.3799C18.0024 18.3504 17.9798 18.3213 17.9569 18.2926C17.9511 18.2806 17.9482 18.2702 17.9484 18.2613L18.0245 18.3799ZM18.0245 18.3799C18.0757 18.4329 18.101 18.4724 18.1006 18.4985C18.2272 18.7092 18.3531 18.9589 18.4784 19.2478C18.5273 19.431 18.5746 19.7053 18.6204 20.0708C18.6134 20.4162 18.5959 20.6766 18.5677 20.852C18.5343 21.2684 18.4229 21.6834 18.2332 22.0971C18.0157 22.6145 17.6805 23.1559 17.2276 23.7213L17.4669 23.4518C16.961 24.0684 16.219 24.7721 15.241 25.5629L15.3031 22.0068C15.3294 20.4958 15.3883 19.3632 15.4796 18.6091C15.5961 17.9075 15.7368 17.3106 15.9018 16.8183M17.495 17.8143C17.5068 17.8206 17.5171 17.8238 17.526 17.8239L17.2559 17.6238L17.4101 17.7437C17.4388 17.7669 17.4671 17.7904 17.495 17.8143ZM23.9147 30.2879C23.6756 30.5443 23.4373 30.7616 23.1997 30.9399L22.0932 31.6242C21.3555 32.0804 20.8025 32.4095 20.4342 32.6116C18.9598 33.4719 17.8417 34.0778 17.0798 34.4294C16.6589 34.6565 16.0284 34.9452 15.1884 35.2954L15.346 35.22C15.2409 35.2703 15.1623 35.295 15.1102 35.294C15.1602 32.4283 15.1847 30.2788 15.1837 28.8455L15.4593 28.733L15.6176 28.6185C15.9869 28.3644 16.4999 28.0867 17.1567 27.7854L16.8413 27.9363C17.5237 27.6615 18.2175 27.4782 18.9227 27.3862L18.5696 27.4583C18.8311 27.4107 19.2093 27.3912 19.7043 27.3999C20.1992 27.4085 20.5765 27.4412 20.8362 27.4978L20.4858 27.4135C21.0571 27.5277 21.6406 27.6943 22.2361 27.9132C22.6242 28.0763 22.9469 28.2513 23.2042 28.4382L23.1651 28.4375C23.294 28.518 23.5249 28.7305 23.8576 29.0751L23.8954 29.1539L24.0839 29.5481L24.1203 29.7051L24.1196 29.7442L24.1189 29.7832L24.1175 29.8614C24.1166 29.9135 24.0892 29.9912 24.0353 30.0945L23.9147 30.2879Z" fill="black"/>
</svg>
