<svg width="28" height="28" viewBox="0 0 28 28" fill="currentColor" xmlns="http://www.w3.org/2000/svg">
<path d="M18.6667 6.99992C18.6667 9.57725 16.5773 11.6666 14 11.6666C11.4227 11.6666 9.33333 9.57725 9.33333 6.99992C9.33333 4.42259 11.4227 2.33325 14 2.33325C16.5773 2.33325 18.6667 4.42259 18.6667 6.99992Z"/>
<path fill-rule="evenodd" clip-rule="evenodd" d="M18.6667 23.3333V16.3333C18.6667 13.7559 16.5773 11.6666 14 11.6666C11.4227 11.6666 9.33333 13.7559 9.33333 16.3333V18.6666C9.33333 16.0893 7.244 13.9999 4.66667 13.9999C2.08934 13.9999 0 16.0893 0 18.6666C0 21.2439 2.08934 23.3333 4.66667 23.3333C2.08934 23.3333 0 25.4226 0 27.9999H9.33333H28V23.3333C28 20.7559 25.9107 18.6666 23.3333 18.6666C25.9107 18.6666 28 16.5772 28 13.9999C28 11.4226 25.9107 9.33325 23.3333 9.33325C20.756 9.33325 18.6667 11.4226 18.6667 13.9999C18.6667 16.5772 20.756 18.6666 23.3333 18.6666C20.756 18.6666 18.6667 20.7559 18.6667 23.3333ZM9.33333 27.9999C9.33333 25.4226 7.244 23.3333 4.66667 23.3333C7.244 23.3333 9.33333 21.2439 9.33333 18.6666V27.9999Z"/>
</svg>
