<svg width="24" height="24" viewBox="0 0 24 24" fill="none" xmlns="http://www.w3.org/2000/svg">
<path fill-rule="evenodd" clip-rule="evenodd" d="M20.4747 4.57702C21.2606 4.83899 21.6853 5.68847 21.4234 6.47438C20.4046 9.53063 19.3374 11.9799 17.6716 14.0621C15.9934 16.1599 13.7932 17.7806 10.6711 19.3417C10.2642 19.5452 9.7869 19.5529 9.37354 19.3628C8.96019 19.1727 8.65546 18.8052 8.54511 18.3638C8.0896 16.5418 7.42933 15.2601 6.60296 14.2787C5.77321 13.2934 4.70934 12.5316 3.32951 11.8417C2.58854 11.4712 2.2882 10.5702 2.65869 9.82922C3.02917 9.08825 3.93018 8.78792 4.67115 9.1584C6.29132 9.96848 7.72745 10.9567 8.8977 12.3463C9.72428 13.3279 10.3852 14.4705 10.8941 15.8212C12.891 14.6713 14.2649 13.5181 15.329 12.188C16.6633 10.5202 17.5961 8.46945 18.5773 5.5257C18.8393 4.73978 19.6888 4.31504 20.4747 4.57702Z" fill="#B7FA4A"/>
</svg>
