<svg width="56" height="56" viewBox="0 0 56 56" fill="none" xmlns="http://www.w3.org/2000/svg">
<path d="M40 0H16C7.16344 0 0 7.16344 0 16V40C0 48.8366 7.16344 56 16 56H40C48.8366 56 56 48.8366 56 40V16C56 7.16344 48.8366 0 40 0Z" fill="black"/>
<path d="M40 0.5H16C7.43959 0.5 0.5 7.43959 0.5 16V40C0.5 48.5604 7.43959 55.5 16 55.5H40C48.5604 55.5 55.5 48.5604 55.5 40V16C55.5 7.43959 48.5604 0.5 40 0.5Z" stroke="#111014" stroke-opacity="0.16"/>
<path d="M38.927 10.9375H44.716L32.0688 25.3925L46.9473 45.0625H35.2975L26.173 33.1328L15.7325 45.0625H9.94008L23.4675 29.6013L9.19458 10.9375H21.14L29.3878 21.8417L38.927 10.9375ZM36.8953 41.5975H40.103L19.397 14.2205H15.9548L36.8953 41.5975Z" fill="white"/>
</svg>
