<svg width="56" height="56" viewBox="0 0 56 56" fill="none" xmlns="http://www.w3.org/2000/svg">
<path d="M40 0H16C7.16344 0 0 7.16344 0 16V40C0 48.8366 7.16344 56 16 56H40C48.8366 56 56 48.8366 56 40V16C56 7.16344 48.8366 0 40 0Z" fill="url(#paint0_linear_760_93364)"/>
<path d="M40 0.5H16C7.43959 0.5 0.5 7.43959 0.5 16V40C0.5 48.5604 7.43959 55.5 16 55.5H40C48.5604 55.5 55.5 48.5604 55.5 40V16C55.5 7.43959 48.5604 0.5 40 0.5Z" stroke="#111014" stroke-opacity="0.16"/>
<path d="M12.6745 27.7041C20.8382 24.1481 26.2807 21.8035 29.002 20.6708C36.7807 17.4364 38.3951 16.8746 39.4495 16.8556C39.6813 16.8519 40.1976 16.9092 40.5345 17.1818C40.8145 17.4114 40.8932 17.7221 40.9326 17.9399C40.9676 18.1578 41.0157 18.6544 40.9763 19.042C40.5563 23.4695 38.732 34.2136 37.8045 39.1727C37.4151 41.271 36.6407 41.9745 35.8926 42.0432C34.2651 42.1928 33.0313 40.9687 31.4563 39.9366C28.9932 38.3209 27.602 37.3155 25.2088 35.7392C22.4438 33.9174 24.2376 32.916 25.8126 31.2798C26.2238 30.8515 33.3901 24.3349 33.5257 23.7438C33.5432 23.6699 33.5607 23.3943 33.3945 23.249C33.2326 23.1033 32.992 23.1532 32.817 23.1926C32.5676 23.2486 28.6345 25.8508 21.0045 30.9989C19.8888 31.7663 18.8782 32.1403 17.9682 32.1206C16.9707 32.0992 15.0457 31.5554 13.6151 31.0908C11.8651 30.5207 10.4695 30.2193 10.592 29.2511C10.6532 28.7471 11.3488 28.2313 12.6745 27.7041Z" fill="white"/>
<defs>
<linearGradient id="paint0_linear_760_93364" x1="2800" y1="0" x2="2800" y2="5600" gradientUnits="userSpaceOnUse">
<stop stop-color="#2AABEE"/>
<stop offset="1" stop-color="#229ED9"/>
</linearGradient>
</defs>
</svg>
