<svg width="56" height="56" viewBox="0 0 56 56" fill="none" xmlns="http://www.w3.org/2000/svg">
<path d="M40 0H16C7.16344 0 0 7.16344 0 16V40C0 48.8366 7.16344 56 16 56H40C48.8366 56 56 48.8366 56 40V16C56 7.16344 48.8366 0 40 0Z" fill="white"/>
<path d="M28.9305 43.0148L20.3137 42.8572C17.5238 42.8023 14.7269 42.9119 11.9917 42.3431C7.83082 41.4929 7.53605 37.3253 7.2276 33.8292C6.80259 28.9142 6.96712 23.91 7.76917 19.0361C8.22195 16.3013 10.0039 14.6694 12.7595 14.4918C22.0617 13.8474 31.4258 13.9237 40.7074 14.2244C41.6878 14.252 42.6748 14.4026 43.6414 14.5741C48.4125 15.4104 48.5289 20.1335 48.8382 24.1095C49.1467 28.1264 49.0164 32.1641 48.4268 36.1537C47.9539 39.457 47.0491 42.2271 43.23 42.4945C38.4449 42.8443 33.7698 43.1258 28.9715 43.0362C28.9717 43.0148 28.9442 43.0148 28.9305 43.0148ZM23.8647 34.6518C27.4706 32.5815 31.0076 30.5456 34.5928 28.4892C30.9802 26.4188 27.4498 24.383 23.8647 22.3265V34.6518Z" fill="#FF0000"/>
<path d="M40 0.5H16C7.43959 0.5 0.5 7.43959 0.5 16V40C0.5 48.5604 7.43959 55.5 16 55.5H40C48.5604 55.5 55.5 48.5604 55.5 40V16C55.5 7.43959 48.5604 0.5 40 0.5Z" stroke="#111014" stroke-opacity="0.16"/>
</svg>
