<svg width="56" height="56" viewBox="0 0 56 56" fill="none" xmlns="http://www.w3.org/2000/svg">
<path d="M40 0H16C7.16344 0 0 7.16344 0 16V40C0 48.8366 7.16344 56 16 56H40C48.8366 56 56 48.8366 56 40V16C56 7.16344 48.8366 0 40 0Z" fill="white"/>
<path d="M40 0.5H16C7.43959 0.5 0.5 7.43959 0.5 16V40C0.5 48.5604 7.43959 55.5 16 55.5H40C48.5604 55.5 55.5 48.5604 55.5 40V16C55.5 7.43959 48.5604 0.5 40 0.5Z" stroke="#111014" stroke-opacity="0.16"/>
<path d="M37.782 21.772C40.6747 23.8387 44.2183 25.0547 48.0457 25.0547V17.6936C47.3213 17.6937 46.5989 17.6182 45.8902 17.4682V23.2624C42.0632 23.2624 38.52 22.0464 35.6266 19.9798V35.0018C35.6266 42.5165 29.5316 48.608 22.0135 48.608C19.2083 48.608 16.601 47.7604 14.4351 46.3067C16.9071 48.8329 20.3545 50.4001 24.1684 50.4001C31.687 50.4001 37.7823 44.3087 37.7823 36.7936L37.782 21.772ZM40.441 14.3455C38.9627 12.7313 37.992 10.6452 37.782 8.33889V7.39209H35.7394C36.2536 10.3234 38.0073 12.8277 40.441 14.3455ZM19.1903 40.5401C18.3643 39.4577 17.918 38.1336 17.92 36.7721C17.92 33.3351 20.7078 30.5484 24.1472 30.5484C24.7882 30.5482 25.4253 30.6463 26.0362 30.8401V23.3144C25.3223 23.2166 24.6019 23.1751 23.8817 23.1903V29.0479C23.2704 28.8542 22.6329 28.7558 21.9918 28.7564C18.5524 28.7564 15.7647 31.5429 15.7647 34.9803C15.7647 37.4108 17.1581 39.515 19.1903 40.5401Z" fill="#FF004F"/>
<path d="M35.6266 19.9797C38.52 22.0463 42.0632 23.2623 45.8903 23.2623V17.468C43.754 17.0132 41.8629 15.8974 40.441 14.3455C38.0071 12.8275 36.2536 10.3232 35.7395 7.39209H30.3742V36.7933C30.362 40.2209 27.579 42.9962 24.1469 42.9962C22.1245 42.9962 20.3278 42.0327 19.1898 40.5401C17.1579 39.515 15.7644 37.4106 15.7644 34.9804C15.7644 31.5433 18.5521 28.7566 21.9915 28.7566C22.6505 28.7566 23.2856 28.8591 23.8814 29.0481V23.1905C16.4954 23.343 10.5552 29.375 10.5552 36.7935C10.5552 40.4967 12.0344 43.8539 14.4352 46.3068C16.6011 47.7604 19.2084 48.6081 22.0136 48.6081C29.5319 48.6081 35.6268 42.5164 35.6268 35.0018L35.6266 19.9797Z" fill="black"/>
<path d="M45.8903 17.468V15.9013C43.9639 15.9042 42.0754 15.365 40.441 14.3453C41.8878 15.9285 43.7929 17.0201 45.8903 17.468ZM35.7395 7.39207C35.6904 7.11193 35.6528 6.82995 35.6266 6.5469V5.6001H28.2186V35.0016C28.2067 38.4287 25.4238 41.2041 21.9915 41.2041C20.9838 41.2041 20.0324 40.965 19.1898 40.5402C20.3278 42.0327 22.1245 42.9961 24.1469 42.9961C27.5787 42.9961 30.3622 40.221 30.3742 36.7934V7.39207H35.7395ZM23.8817 23.1905V21.5226C23.2627 21.438 22.6386 21.3956 22.0138 21.3959C14.4949 21.3959 8.3999 27.4875 8.3999 35.0016C8.3999 39.7125 10.7953 43.8643 14.4354 46.3065C12.0346 43.8537 10.5553 40.4964 10.5553 36.7933C10.5553 29.3749 16.4954 23.343 23.8817 23.1905Z" fill="#00F2EA"/>
</svg>
